<?xml version="1.0" encoding="UTF-8"?>
<!DOCTYPE svg PUBLIC "-//W3C//DTD SVG 1.1//EN" "http://www.w3.org/Graphics/SVG/1.1/DTD/svg11.dtd">
<!-- Creator: CorelDRAW -->
<svg xmlns="http://www.w3.org/2000/svg" xml:space="preserve" width="6.82666in" height="6.82666in" style="shape-rendering:geometricPrecision; text-rendering:geometricPrecision; image-rendering:optimizeQuality; fill-rule:evenodd; clip-rule:evenodd"
viewBox="0 0 6.82666 6.82666"
 xmlns:xlink="http://www.w3.org/1999/xlink">
 <defs>
  <style type="text/css">
   <![CDATA[
    .fil2 {fill:none}
    .fil1 {fill:#EC407A}
    .fil0 {fill:#F06292}
    .fil3 {fill:#FFF3E0}
    .fil4 {fill:#424242;fill-rule:nonzero}
   ]]>
  </style>
 </defs>
 <g id="Layer_x0020_1">
  <metadata id="CorelCorpID_0Corel-Layer"/>
  <polygon class="fil0" points="5.82335,2.47611 5.82335,5.95723 1.00331,5.95723 1.00331,2.47611 "/>
  <path class="fil1" d="M1.00331 1.40498c1.60668,0 3.21336,0 4.82004,0l0 1.07113 -4.82004 0 0 -1.07113z"/>
  <g id="_488778736">
   <rect id="_488779288" class="fil2" width="6.82666" height="6.82666"/>
   <rect id="_488779072" class="fil2" x="0.853331" y="0.853331" width="5.12" height="5.12"/>
  </g>
  <g id="_488778232">
   <path id="_488778376" class="fil3" d="M3.56631 5.28931c-0.000948819,-0.00977953 -0.00194094,-0.0199724 -0.00243701,-0.0311929 -0.000496063,-0.0116772 -0.000496063,-0.0287559 -0.000496063,-0.0516575 0,-0.143657 0.0311929,-0.278614 0.0940315,-0.405276 0.0628346,-0.126626 0.159295,-0.247921 0.289835,-0.363862 0.0248386,-0.0219055 0.0604055,-0.0540866 0.10715,-0.0959646 0.148571,-0.131035 0.246972,-0.224571 0.295697,-0.281051 0.0399409,-0.0462953 0.0686969,-0.0998898 0.0867283,-0.159791 0.0179882,-0.0599094 0.0272677,-0.131039 0.0272677,-0.213843 0,-0.126626 -0.0282598,-0.223583 -0.0842913,-0.291283 -0.0560236,-0.0677047 -0.135906,-0.101335 -0.239665,-0.101335 -0.106657,0 -0.186571,0.0375039 -0.239177,0.112516 -0.0530984,0.0755 -0.079378,0.189004 -0.079378,0.341492 0,0 0.000492126,0.00779921 0.00144094,0.0238465 0.000988189,0.0165906 0.00148819,0.0326339 0.00148819,0.0487244l-0.23674 0c0,-0.00878346 -0.000496063,-0.0214528 -0.00148819,-0.0394409 -0.000948819,-0.0175315 -0.00144488,-0.0306969 -0.00144488,-0.0389882 0,-0.213343 0.0491811,-0.377512 0.147583,-0.492953 0.0984016,-0.115445 0.238224,-0.173409 0.418937,-0.173409 0.177783,0 0.316618,0.0526024 0.416461,0.157815 0.0998898,0.105205 0.150059,0.251839 0.150059,0.44035 0,0.0959646 -0.00974016,0.180256 -0.0292559,0.253323 -0.0194724,0.0725748 -0.050622,0.14028 -0.0934882,0.203118 -0.0428661,0.0667126 -0.138343,0.159748 -0.286913,0.279606 -0.0370472,0.0297047 -0.0652717,0.0526063 -0.0842874,0.0686969 -0.149067,0.123685 -0.254768,0.230382 -0.316122,0.319539 -0.0613898,0.0896142 -0.0930394,0.178283 -0.0959646,0.266941l0.924551 0 0 0.22552 -1.17008 -0.00144094z"/>
   <path id="_488778016" class="fil3" d="M2.09319 5.28931c-0.000948819,-0.00977953 -0.00194094,-0.0199724 -0.00243307,-0.0311929 -0.000496063,-0.0116772 -0.000496063,-0.0287559 -0.000496063,-0.0516575 0,-0.143657 0.0311929,-0.278614 0.0940276,-0.405276 0.0628346,-0.126626 0.159299,-0.247921 0.289839,-0.363862 0.0248346,-0.0219055 0.0604016,-0.0540866 0.107146,-0.0959646 0.148575,-0.131035 0.246972,-0.224571 0.295701,-0.281051 0.039937,-0.0462953 0.0686929,-0.0998898 0.0867283,-0.159791 0.0179882,-0.0599094 0.0272677,-0.131039 0.0272677,-0.213843 0,-0.126626 -0.0282638,-0.223583 -0.0842874,-0.291283 -0.0560315,-0.0677047 -0.135906,-0.101335 -0.239673,-0.101335 -0.10665,0 -0.186567,0.0375039 -0.239173,0.112516 -0.0530984,0.0755 -0.0793819,0.189004 -0.0793819,0.341492 0,0 0.000496063,0.00779921 0.00144488,0.0238465 0.000992126,0.0165906 0.00148819,0.0326339 0.00148819,0.0487244l-0.236744 0c0,-0.00878346 -0.000492126,-0.0214528 -0.00148031,-0.0394409 -0.000948819,-0.0175315 -0.00144882,-0.0306969 -0.00144882,-0.0389882 0,-0.213343 0.0491811,-0.377512 0.147583,-0.492953 0.0984016,-0.115445 0.238224,-0.173409 0.418937,-0.173409 0.17778,0 0.316614,0.0526024 0.416461,0.157815 0.0998858,0.105205 0.150055,0.251839 0.150055,0.44035 0,0.0959646 -0.00973228,0.180256 -0.029248,0.253323 -0.0194764,0.0725748 -0.050626,0.14028 -0.0934961,0.203118 -0.0428622,0.0667126 -0.138339,0.159748 -0.286909,0.279606 -0.0370512,0.0297047 -0.0652677,0.0526063 -0.0842874,0.0686969 -0.149071,0.123685 -0.254772,0.230382 -0.316122,0.319539 -0.0613937,0.0896142 -0.0930394,0.178283 -0.0959646,0.266941l0.924551 0 0 0.22552 -1.17008 -0.00144094z"/>
  </g>
  <path class="fil4" d="M1.67259 1.20056c0,-0.0739449 -0.0599488,-0.133894 -0.133894,-0.133894 -0.0739449,0 -0.133894,0.0599488 -0.133894,0.133894l0 0.552c0,0.0739409 0.0599488,0.13389 0.133894,0.13389 0.0739449,0 0.133894,-0.0599488 0.133894,-0.13389l0 -0.552zm2.81194 0c0,-0.0739449 -0.0599488,-0.133894 -0.133894,-0.133894 -0.0739449,0 -0.133894,0.0599488 -0.133894,0.133894l0 0.552c0,0.0739409 0.0599488,0.13389 0.133894,0.13389 0.0739449,0 0.133894,-0.0599488 0.133894,-0.13389l0 -0.552zm-0.937311 0c0,-0.0739449 -0.0599488,-0.133894 -0.133894,-0.133894 -0.0739449,0 -0.133894,0.0599488 -0.133894,0.133894l0 0.552c0,0.0739409 0.0599488,0.13389 0.133894,0.13389 0.0739449,0 0.133894,-0.0599488 0.133894,-0.13389l0 -0.552zm-0.937315 0c0,-0.0739449 -0.0599488,-0.133894 -0.133894,-0.133894 -0.0739409,0 -0.13389,0.0599488 -0.13389,0.133894l0 0.552c0,0.0739409 0.0599488,0.13389 0.13389,0.13389 0.0739449,0 0.133894,-0.0599488 0.133894,-0.13389l0 -0.552zm2.81194 0c0,-0.0739449 -0.0599528,-0.133894 -0.133894,-0.133894 -0.0739449,0 -0.133894,0.0599488 -0.133894,0.133894l0 0.552c0,0.0739409 0.0599488,0.13389 0.133894,0.13389 0.0739409,0 0.133894,-0.0599488 0.133894,-0.13389l0 -0.552z"/>
 </g>
</svg>
